<?xml version="1.0" standalone="no"?>
<!DOCTYPE svg PUBLIC "-//W3C//DTD SVG 20010904//EN"
 "http://www.w3.org/TR/2001/REC-SVG-20010904/DTD/svg10.dtd">
<svg version="1.0" xmlns="http://www.w3.org/2000/svg"
 width="760.000000pt" height="760.000000pt" viewBox="0 0 760.000000 760.000000"
 preserveAspectRatio="xMidYMid meet">
<metadata>
Created by potrace 1.11, written by Peter Selinger 2001-2013
</metadata>
<g transform="translate(0.000000,760.000000) scale(0.100000,-0.100000)"
fill="#000000" stroke="none">
<path d="M2642 7588 c-8 -11 -19 -66 -37 -198 -2 -14 -6 -47 -10 -75 -4 -27
-9 -64 -10 -80 -1 -17 -5 -44 -8 -60 -4 -17 -9 -49 -12 -72 -13 -111 -17 -130
-31 -150 -8 -13 -19 -23 -24 -23 -5 0 -112 18 -237 40 -126 22 -280 50 -343
61 -180 32 -179 32 -296 5 -60 -14 -122 -27 -138 -30 -15 -3 -39 -12 -53 -21
-26 -17 -25 -9 -7 -142 10 -80 17 -108 27 -123 15 -20 209 -253 217 -260 3 -3
73 -86 155 -185 83 -98 160 -190 173 -204 47 -51 46 -53 -88 -346 -15 -33
-112 -249 -215 -480 -103 -231 -195 -438 -205 -460 -10 -22 -90 -200 -178
-395 -87 -195 -172 -383 -187 -418 l-28 -64 52 -151 c29 -84 54 -156 55 -162
2 -5 6 -17 9 -25 4 -8 63 -179 133 -380 69 -201 157 -455 196 -565 38 -110 80
-231 93 -270 13 -38 49 -142 80 -230 32 -88 61 -173 65 -190 5 -16 25 -75 45
-130 20 -55 58 -163 84 -240 68 -196 62 -183 167 -356 93 -152 96 -159 110
-250 8 -52 24 -152 35 -224 12 -71 23 -146 25 -165 3 -19 7 -46 9 -60 3 -14
12 -70 20 -125 8 -55 17 -109 19 -120 2 -11 7 -40 10 -65 11 -75 11 -77 26
-94 26 -32 63 -16 90 39 29 56 82 179 80 183 0 1 6 15 15 30 8 15 87 188 174
385 88 198 161 360 163 361 2 1 69 46 151 101 81 55 155 105 165 110 9 6 19
13 22 16 3 3 106 74 230 158 l225 154 438 0 c364 0 440 -2 452 -14 7 -8 37
-72 65 -144 29 -71 58 -143 65 -160 11 -23 145 -354 172 -422 3 -6 43 -37 89
-68 94 -63 106 -77 128 -155 8 -30 27 -93 41 -140 15 -47 33 -105 40 -130 7
-25 32 -106 55 -180 40 -129 48 -157 49 -172 2 -16 35 -38 57 -38 34 0 52 47
88 221 3 13 17 71 31 129 15 58 28 112 30 120 2 8 17 74 35 146 l31 131 124
59 c73 34 127 66 131 76 7 24 11 51 19 138 3 41 8 89 10 105 2 17 6 62 10 100
3 39 7 88 9 110 3 22 7 74 11 115 4 41 8 91 10 110 2 19 6 69 10 110 3 41 8
91 10 110 2 19 7 68 10 109 3 40 7 88 10 105 2 17 7 67 10 110 8 95 14 145 20
167 3 10 108 60 270 129 145 62 271 118 280 124 8 6 17 21 19 33 5 21 1 26
-69 82 -6 4 -15 10 -20 12 -6 2 -111 71 -235 153 -484 321 -637 421 -647 423
-31 6 -73 13 -118 18 -27 3 -61 7 -75 10 -14 2 -63 9 -110 15 -47 6 -96 13
-110 15 -14 2 -47 6 -75 10 -27 3 -81 11 -120 16 -38 6 -88 13 -110 15 -40 5
-85 11 -140 19 -16 2 -50 7 -75 10 -25 3 -94 12 -155 21 -60 8 -128 17 -150
20 -22 2 -51 7 -65 9 -14 2 -47 7 -75 10 -27 3 -61 8 -75 10 -14 2 -63 9 -110
15 -47 6 -96 13 -110 15 -14 2 -52 7 -85 11 -33 3 -62 8 -65 9 -3 2 -34 6 -70
10 -36 4 -72 8 -80 10 -9 2 -43 6 -75 10 -33 4 -69 9 -80 11 -11 2 -58 9 -105
14 -47 6 -92 13 -100 15 -8 2 -44 7 -80 10 -36 4 -74 9 -85 11 -11 2 -42 7
-70 9 -27 3 -57 13 -67 22 -19 17 -19 36 -3 158 2 17 7 66 10 110 4 44 8 87
10 95 2 8 7 44 10 80 3 36 8 81 10 100 2 19 7 64 10 100 4 36 8 81 10 100 2
19 7 62 10 95 4 33 8 71 11 85 2 14 6 59 9 101 3 42 7 86 10 97 2 12 6 52 10
89 3 37 8 82 10 99 3 17 7 57 10 90 3 32 8 73 10 89 2 17 7 62 10 100 4 39 8
81 10 95 2 14 7 52 9 85 5 55 9 92 21 195 2 19 9 82 15 140 6 58 13 121 15
140 3 19 7 67 10 105 3 39 8 81 10 95 2 14 7 54 10 90 3 36 10 101 15 145 5
44 12 109 15 145 4 36 13 115 20 175 13 119 14 113 -55 365 -11 41 -22 82 -24
90 -47 188 -54 207 -89 241 -8 8 -67 64 -132 124 -66 61 -127 118 -136 127
-39 37 -79 48 -97 26z m1857 -4432 c72 -38 128 -144 118 -223 -13 -111 -102
-196 -214 -207 -37 -3 -105 17 -140 42 l-29 20 -224 -128 c-223 -128 -225
-129 -226 -163 -2 -25 3 -37 15 -41 9 -3 31 -15 50 -27 49 -29 299 -172 345
-197 l39 -21 42 25 c110 64 242 31 312 -79 22 -35 27 -54 27 -112 1 -80 -15
-117 -72 -171 -134 -127 -368 -32 -377 152 -2 49 -4 51 -95 101 -30 16 -123
69 -207 117 l-152 88 -28 -19 c-148 -105 -354 2 -354 183 0 101 58 182 152
214 66 23 117 18 183 -15 l53 -27 39 22 c150 85 391 224 398 231 5 4 10 28 12
53 9 156 191 256 333 182z"/>
</g>
</svg>
