<svg width="538" height="759" viewBox="0 0 538 759" fill="none" xmlns="http://www.w3.org/2000/svg">
<path fill-rule="evenodd" clip-rule="evenodd" d="M35.0534 87.8443L92.1128 155.84C93.3442 157.307 93.6289 159.349 92.8459 161.098L0.436757 367.429C-0.0839206 368.592 -0.141234 369.909 0.276514 371.113L87.4507 622.234C87.5674 622.57 87.7195 622.892 87.9045 623.196L106.609 653.89C106.95 654.451 107.178 655.073 107.279 655.722L121.512 746.981C122.281 751.906 128.994 752.797 131.021 748.243L174.048 651.538C174.426 650.689 175.033 649.962 175.801 649.439L253.352 596.607C254.182 596.042 255.163 595.739 256.167 595.739H340.262C342.296 595.739 344.127 596.971 344.893 598.856L373.553 669.331C373.927 670.249 374.565 671.036 375.386 671.59L391.156 682.246C392.107 682.888 392.808 683.839 393.141 684.937L414.294 754.663C415.773 759.538 422.743 759.338 423.939 754.386L440.569 685.544C440.922 684.085 441.911 682.862 443.263 682.212L464.574 671.966C466.157 671.205 467.225 669.669 467.386 667.919L479.853 532.703C480.021 530.877 481.176 529.289 482.862 528.567L534.608 506.39C538.264 504.823 538.715 499.82 535.397 497.625L442.081 435.871C441.453 435.455 440.738 435.187 439.991 435.086L179.439 399.889C176.759 399.527 174.852 397.099 175.136 394.409L207.529 87.6576C207.593 87.0505 207.546 86.4368 207.389 85.8469L193.494 33.6225C193.254 32.7185 192.764 31.9001 192.082 31.2603L160.186 1.35805C157.225 -1.41838 152.364 0.305233 151.813 4.32714L143.832 62.5871C143.447 65.3993 140.801 67.3271 138.006 66.8318L65.113 53.9141C64.4616 53.7987 63.7937 53.8137 63.1481 53.9582L35.1125 60.2349C32.5762 60.8027 30.8979 63.219 31.2513 65.794L33.93 85.3101C34.0581 86.2438 34.4476 87.1223 35.0534 87.8443ZM244.439 532.993C231.862 532.993 221.626 522.757 221.626 510.179C221.626 497.602 231.862 487.366 244.439 487.366C250.24 487.375 255.816 489.607 260.021 493.602L305.579 467.572C305.558 467.419 305.537 467.266 305.515 467.114C305.395 466.271 305.275 465.428 305.275 464.553C305.275 451.975 315.511 441.739 328.088 441.739C340.666 441.739 350.902 451.975 350.902 464.553C350.902 477.13 340.666 487.366 328.088 487.366C322.051 487.366 316.591 484.971 312.507 481.13L266.949 507.16C266.97 507.313 266.991 507.466 267.013 507.619C267.133 508.461 267.253 509.304 267.253 510.179C267.253 511.055 267.133 511.897 267.013 512.74C266.991 512.893 266.97 513.045 266.949 513.198L312.507 539.228C316.591 535.388 322.051 532.993 328.088 532.993C340.666 532.993 350.902 543.228 350.902 555.806C350.902 568.384 340.666 578.619 328.088 578.619C315.511 578.619 305.275 568.384 305.275 555.806C305.275 554.926 305.396 554.078 305.517 553.236C305.538 553.089 305.559 552.942 305.579 552.795L260.021 526.757C255.937 530.597 250.477 532.993 244.439 532.993Z" fill="#7CC9B4"/>
</svg>
